<svg width="40" height="40" viewBox="0 0 40 40" fill="none" xmlns="http://www.w3.org/2000/svg">
<path d="M39.0604 13.9249C37.938 10.3547 35.7985 7.12289 32.9224 4.73109C31.461 3.58769 29.5669 3.121 27.7548 3.03933C27.4157 3.03933 27.0416 3.03933 26.7142 3.03933C21.7571 3.28434 17.1156 5.61781 13.1989 8.5463C13.1639 8.56963 13.1639 8.6163 13.1989 8.6513C14.8124 10.4247 16.3322 12.2915 17.8053 14.1933C17.8287 14.2283 17.8755 14.2283 17.8989 14.2049C21.0556 11.9415 24.3526 9.85303 27.8951 8.21961C27.9301 8.20794 27.9652 8.21961 27.9886 8.25462C29.111 10.4364 25.3697 13.9716 23.8381 15.2433C20.4125 18.0435 16.4842 20.7736 11.948 21.1353C11.1179 21.2053 10.2761 21.1003 9.48105 20.902C7.38828 20.3653 5.7398 18.5918 5.07338 16.5734C4.74602 15.535 4.74601 14.4149 4.94477 13.3532C5.31889 11.4281 6.28928 9.57302 7.6338 7.9396C10.6853 3.91438 16.1452 1.2309 22.3884 1.2309C28.6316 1.2309 27.1936 1.65092 29.3097 2.39763C29.3331 2.33929 29.3331 2.36263 29.3682 2.26929C26.7376 0.892547 23.768 0.122506 20.8101 0.00583294C20.167 0.00583294 19.5123 -0.0175002 18.8927 0.029169C8.30022 0.577532 -0.351447 9.66636 0.0109876 20.3069V20.3303V20.3536C0.0109876 20.4586 0.010999 20.5636 0.0226905 20.6686C0.0226905 20.7386 0.0226905 20.8203 0.0226905 20.8786C0.0226905 21.042 0.046079 21.217 0.0577705 21.3803C0.0577705 21.4153 0.0577534 21.462 0.0694448 21.497C0.0694448 21.532 0.0694391 21.5787 0.0928219 21.6137C0.0928219 21.6137 0.0928219 21.6253 0.0928219 21.637C0.396799 26.969 3.2846 31.5542 8.84972 32.3826C10.1709 32.5576 11.5037 32.5459 12.8248 32.4759C19.9215 31.9626 27.3456 28.2174 31.8351 22.6987C33.846 20.1553 35.3308 17.0634 35.5179 13.7966C35.5413 13.5749 35.5296 13.3532 35.5413 13.1432C35.5413 13.1432 35.5413 13.1315 35.5413 13.1199C35.5413 13.0965 35.5646 13.1199 35.5763 13.1199C35.6114 13.1549 35.6582 13.1899 35.6932 13.2249C37.9614 15.7217 39.3644 18.9185 39.6917 22.267C39.7853 22.267 39.7619 22.267 39.8554 22.267C40.1945 19.4552 39.9372 16.5734 39.0838 13.8666L39.0604 13.9249Z" fill="white"/>
<path d="M18.472 37.3467C13.3746 37.3467 8.66292 35.7716 4.82812 33.0882C8.49924 37.3234 13.9241 39.9952 19.9685 39.9952C29.3918 39.9952 37.2952 33.4848 39.4231 24.7344C35.6117 32.2014 27.6615 37.3467 18.472 37.3467Z" fill="white"/>
</svg>
